<svg width="27" height="33" viewBox="0 0 27 33" fill="none" xmlns="http://www.w3.org/2000/svg">
<path d="M3.58301 32.667C2.68926 32.667 1.92442 32.3539 1.28851 31.7278C0.652591 31.1017 0.334091 30.3481 0.333008 29.467V3.86699C0.333008 2.98699 0.651508 2.23393 1.28851 1.60779C1.92551 0.981659 2.69034 0.668059 3.58301 0.666992H23.083C23.9768 0.666992 24.7421 0.980592 25.3791 1.60779C26.0161 2.23499 26.3341 2.98806 26.333 3.86699V29.467C26.333 30.347 26.015 31.1006 25.3791 31.7278C24.7432 32.355 23.9778 32.6681 23.083 32.667H3.58301ZM11.708 15.067L15.7705 12.667L19.833 15.067V3.86699H11.708V15.067Z" fill="#0ed977"/>
</svg>
