<svg viewBox="0 0 58 61" fill="currentColor" xmlns="http://www.w3.org/2000/svg">
<path d="M30.0251 0.5C24.5887 0.500998 19.2545 1.97622 14.5915 4.76829C9.9286 7.56036 6.11181 11.5646 3.54831 16.3537C0.984811 21.1429 -0.229232 26.5375 0.0356827 31.9619C0.300597 37.3863 2.03453 42.6372 5.05253 47.1543C8.07052 51.6715 12.2594 55.2855 17.1722 57.6109C22.0851 59.9362 27.5377 60.8857 32.9484 60.3581C38.3591 59.8304 43.5249 57.8453 47.8948 54.6147C52.2648 51.384 55.6749 47.029 57.7614 42.014C58.7854 39.554 56.3319 37.082 53.8634 38.084C49.6326 39.796 44.935 39.9727 40.5873 38.5833C36.2397 37.1939 32.5169 34.3263 30.0664 30.4791C27.6158 26.6318 26.5924 22.0483 27.1741 17.5255C27.7558 13.0026 29.9059 8.8264 33.2504 5.723L33.4816 5.483C35.1363 3.593 33.821 0.524 31.2053 0.524H30.4065L30.2023 0.506L30.0251 0.5Z"/>
</svg>
