<svg viewBox="0 0 60 61" fill="currentColor" xmlns="http://www.w3.org/2000/svg">
<path d="M30 51.5028C30.7349 51.5029 31.4442 51.7727 31.9933 52.261C32.5425 52.7493 32.8933 53.4222 32.9793 54.152L33.0003 54.503V57.5032C32.9995 58.2678 32.7067 59.0033 32.1817 59.5594C31.6567 60.1154 30.9392 60.45 30.1758 60.4948C29.4124 60.5397 28.6607 60.2913 28.0743 59.8005C27.4879 59.3097 27.111 58.6135 27.0207 57.8542L26.9997 57.5032V54.503C26.9997 53.7073 27.3158 52.9442 27.8784 52.3816C28.4411 51.8189 29.2043 51.5028 30 51.5028ZM48.9411 45.2325L49.2231 45.4815L51.3234 47.5816C51.8615 48.1215 52.1739 48.846 52.1971 49.6079C52.2204 50.3698 51.9528 51.1119 51.4486 51.6837C50.9445 52.2554 50.2416 52.6138 49.4827 52.6861C48.7239 52.7584 47.966 52.5391 47.3629 52.0729L47.0809 51.8238L44.9807 49.7237C44.4629 49.2069 44.1518 48.5187 44.1059 47.7886C44.0601 47.0585 44.2825 46.3368 44.7315 45.7593C45.1804 45.1817 45.825 44.788 46.5439 44.6523C47.2627 44.5167 48.0064 44.6483 48.6351 45.0225L48.9411 45.2325ZM15.0193 45.4815C15.5359 45.9981 15.8463 46.6854 15.8921 47.4146C15.938 48.1437 15.7162 48.8645 15.2684 49.4417L15.0193 49.7237L12.9191 51.8238C12.3792 52.3619 11.6547 52.6743 10.8927 52.6976C10.1308 52.7208 9.38858 52.4532 8.81682 51.9491C8.24506 51.445 7.88664 50.7421 7.81435 49.9833C7.74206 49.2245 7.96132 48.4666 8.42761 47.8636L8.67664 47.5816L10.7769 45.4815C11.3395 44.919 12.1025 44.6031 12.8981 44.6031C13.6937 44.6031 14.4567 44.919 15.0193 45.4815ZM5.99734 27.5015C6.76207 27.5023 7.4976 27.7952 8.05367 28.3201C8.60975 28.845 8.94437 29.5625 8.98919 30.3258C9.034 31.0892 8.78563 31.8409 8.2948 32.4273C7.80398 33.0137 7.10775 33.3905 6.34838 33.4808L5.99734 33.5018H2.99701C2.23229 33.501 1.49675 33.2082 0.940676 32.6832C0.384606 32.1583 0.049977 31.4409 0.00516068 30.6775C-0.0396556 29.9141 0.208723 29.1625 0.699549 28.5761C1.19037 27.9897 1.8866 27.6128 2.64597 27.5225L2.99701 27.5015H5.99734ZM57.003 27.5015C57.7677 27.5023 58.5033 27.7952 59.0593 28.3201C59.6154 28.845 59.95 29.5625 59.9948 30.3258C60.0397 31.0892 59.7913 31.8409 59.3005 32.4273C58.8096 33.0137 58.1134 33.3905 57.354 33.4808L57.003 33.5018H54.0027C53.2379 33.501 52.5024 33.2082 51.9463 32.6832C51.3903 32.1583 51.0556 31.4409 51.0108 30.6775C50.966 29.9141 51.2144 29.1625 51.7052 28.5761C52.196 27.9897 52.8923 27.6128 53.6516 27.5225L54.0027 27.5015H57.003ZM12.6371 8.93047L12.9191 9.17948L15.0193 11.2796C15.5574 11.8195 15.8699 12.544 15.8931 13.3059C15.9164 14.0678 15.6488 14.8099 15.1446 15.3817C14.6405 15.9534 13.9376 16.3118 13.1787 16.3841C12.4199 16.4564 11.6619 16.2371 11.0589 15.7708L10.7769 15.5218L8.67664 13.4217C8.16085 12.9047 7.85134 12.2174 7.80614 11.4885C7.76094 10.7596 7.98314 10.0393 8.4311 9.46256C8.87906 8.88581 9.522 8.49223 10.2394 8.35561C10.9568 8.21899 11.6994 8.34871 12.328 8.72046L12.6371 8.93047ZM51.3234 9.17948C51.84 9.69609 52.1503 10.3834 52.1961 11.1125C52.242 11.8417 52.0202 12.5625 51.5724 13.1397L51.3234 13.4217L49.2231 15.5218C48.6832 16.0599 47.9587 16.3723 47.1968 16.3956C46.4348 16.4188 45.6926 16.1512 45.1208 15.6471C44.5491 15.143 44.1907 14.4401 44.1184 13.6813C44.0461 12.9225 44.2653 12.1646 44.7316 11.5616L44.9807 11.2796L47.0809 9.17948C47.6435 8.61704 48.4065 8.30107 49.2021 8.30107C49.9977 8.30107 50.7607 8.61704 51.3234 9.17948ZM30 0.5C30.7349 0.500097 31.4442 0.769884 31.9933 1.25819C32.5425 1.74649 32.8933 2.41935 32.9793 3.14915L33.0003 3.50017V6.50033C32.9995 7.26501 32.7067 8.00051 32.1817 8.55655C31.6567 9.11259 30.9392 9.4472 30.1758 9.49201C29.4124 9.53683 28.6607 9.28846 28.0743 8.79767C27.4879 8.30687 27.111 7.61068 27.0207 6.85135L26.9997 6.50033V3.50017C26.9997 2.70447 27.3158 1.94137 27.8784 1.37873C28.4411 0.816088 29.2043 0.5 30 0.5ZM30 15.5008C32.9394 15.5007 35.814 16.3639 38.2669 17.9835C40.7198 19.603 42.6428 21.9074 43.7972 24.6104C44.9516 27.3135 45.2864 30.2961 44.7601 33.1877C44.2337 36.0794 42.8695 38.7528 40.8367 40.8758C38.8039 42.9988 36.1922 44.4779 33.326 45.1294C30.4597 45.7808 27.4652 45.576 24.7144 44.5402C21.9636 43.5045 19.5777 41.6835 17.853 39.3034C16.1284 36.9234 15.1409 34.0891 15.0133 31.1527L14.9983 30.5017L15.0133 29.8506C15.1811 25.9887 16.8334 22.3405 19.6255 19.667C22.4177 16.9935 26.1342 15.5011 30 15.5008Z"/>
</svg>
